<?xml version="1.0" encoding="UTF-8"?>
<svg version="1.1" xmlns="http://www.w3.org/2000/svg" width="1024" height="1280">
<path d="M0 0 C1.90796191 -0.37374616 1.90796191 -0.37374616 4.28820133 -0.3719368 C5.64654861 -0.38182156 5.64654861 -0.38182156 7.03233725 -0.39190602 C8.03358505 -0.38384962 9.03483286 -0.37579321 10.06642151 -0.36749268 C11.12506485 -0.37076152 12.1837082 -0.37403036 13.27443165 -0.37739825 C16.84528802 -0.38471966 20.41574053 -0.37048282 23.98657227 -0.35644531 C26.53693716 -0.3572356 29.08730193 -0.35933106 31.63766479 -0.36264038 C37.85952743 -0.36725449 44.08123841 -0.35794139 50.30307908 -0.34235242 C57.54182157 -0.32484695 64.78053997 -0.32339389 72.01930033 -0.32273683 C84.93045537 -0.3210475 97.84155427 -0.3052166 110.75268555 -0.28125 C123.29435695 -0.25798596 135.83599274 -0.24382478 148.37768555 -0.24023438 C149.15022655 -0.24001161 149.92276756 -0.23978884 150.71871889 -0.23955932 C152.27491061 -0.23911674 153.83110233 -0.23867471 155.38729405 -0.23823325 C156.15486712 -0.23801369 156.92244019 -0.23779412 157.71327305 -0.2375679 C158.47885067 -0.23735192 159.2444283 -0.23713593 160.03320524 -0.2369134 C171.96715873 -0.23321621 183.90110643 -0.22185665 195.83505358 -0.2094375 C200.16743973 -0.20499613 204.49982533 -0.2015604 208.83221287 -0.19881538 C216.34332721 -0.19397773 223.85440471 -0.18389001 231.36550522 -0.16798782 C233.86616071 -0.16344968 236.36681994 -0.1606226 238.86747932 -0.15958023 C242.26520184 -0.15784549 245.66285394 -0.14999176 249.06056213 -0.14044189 C250.06404066 -0.14130838 251.06751919 -0.14217486 252.10140616 -0.1430676 C253.00436326 -0.13922645 253.90732037 -0.13538531 254.83763981 -0.13142776 C255.62295647 -0.13018127 256.40827313 -0.12893477 257.21738726 -0.1276505 C259 0 259 0 260 1 C260.09701605 3.2149186 260.12186691 5.43299797 260.12025452 7.65003967 C260.12153615 8.70487782 260.12153615 8.70487782 260.12284368 9.78102583 C260.12450053 12.15490516 260.1189738 14.52871498 260.11352539 16.90258789 C260.11324354 18.59729511 260.11340122 20.29200245 260.1139679 21.98670959 C260.11425594 26.60221626 260.10835809 31.21769717 260.10139394 35.83319783 C260.09516156 40.65120264 260.09455669 45.46920797 260.09336853 50.28721619 C260.09025487 59.41742498 260.08204102 68.54762186 260.07201904 77.67782539 C260.06085898 88.06942676 260.05534772 98.46102868 260.05032361 108.85263455 C260.03985843 130.23509636 260.02225832 151.61754743 260 173 C262.81308323 170.20478193 265.56236792 167.45289318 268.05078125 164.36328125 C268.58010254 163.70884033 269.10942383 163.05439941 269.65478516 162.38012695 C270.20183105 161.69781006 270.74887695 161.01549316 271.3125 160.3125 C271.88790527 159.59989014 272.46331055 158.88728027 273.05615234 158.15307617 C276.09522954 154.38562863 279.11415696 150.60254672 282.125 146.8125 C285.6903007 142.33127279 289.40137379 137.98255877 293.12524414 133.63330078 C295.58660665 130.73947215 297.91726583 127.82284224 300.0625 124.6875 C300.701875 123.800625 301.34125 122.91375 302 122 C302.66 122 303.32 122 304 122 C304.22945312 121.47148438 304.45890625 120.94296875 304.6953125 120.3984375 C306.42861242 117.21207177 308.62426639 114.45404438 310.875 111.625 C311.35751221 111.01430664 311.84002441 110.40361328 312.3371582 109.77441406 C316.34409859 104.74109386 320.50333902 99.84905607 324.71484375 94.98657227 C328.33163668 90.80583894 331.81478843 86.53724477 335.2421875 82.19921875 C337.74950236 79.06228928 340.3650854 76.03015179 343 73 C346.43680242 73.55817604 347.74028681 74.45830335 349.77734375 77.25390625 C350.28418701 77.93549805 350.79103027 78.61708984 351.31323242 79.31933594 C351.84924072 80.05958008 352.38524902 80.79982422 352.9375 81.5625 C354.09677728 83.12271669 355.25829439 84.68127127 356.421875 86.23828125 C357.01419922 87.03314941 357.60652344 87.82801758 358.21679688 88.64697266 C360.95112763 92.25506135 363.81223547 95.75390083 366.6875 99.25 C371.79145378 105.48102652 376.73977374 111.804922 381.62646484 118.20849609 C384.31562337 121.71596948 387.03457867 125.20034698 389.75 128.6875 C390.3378125 129.44264893 390.925625 130.19779785 391.53125 130.97583008 C392.73899204 132.52726119 393.94683832 134.07861115 395.15478516 135.62988281 C398.25052312 139.60625542 401.34389338 143.58446915 404.4375 147.5625 C405.54035349 148.98047738 406.64321772 150.39844641 407.74609375 151.81640625 C408.27702637 152.49977051 408.80795898 153.18313477 409.35498047 153.88720703 C410.49698573 155.35394991 411.64206406 156.8183032 412.78955078 158.28076172 C413.68456299 159.42375732 413.68456299 159.42375732 414.59765625 160.58984375 C415.13011963 161.26781006 415.66258301 161.94577637 416.21118164 162.64428711 C417.71427542 164.62372643 419.17006876 166.6231987 420.61180115 168.64723206 C421.05972236 169.27566293 421.50764357 169.9040938 421.96913815 170.55156803 C422.30932256 171.02955058 422.64950697 171.50753313 423 172 C423.00331015 171.13178462 423.00662029 170.26356924 423.01003075 169.3690443 C423.09118045 148.26292008 423.18324637 127.15686825 423.28752708 106.05084515 C423.3376916 95.84421481 423.38413403 85.63759266 423.421875 75.4309082 C423.45477172 66.53683974 423.49459 57.6428341 423.54279006 48.74883491 C423.56807817 44.03765964 423.58985258 39.32652618 423.60334396 34.61530113 C423.61614339 30.18384912 423.63817473 25.75254031 423.66738319 21.32116699 C423.67647559 19.69214739 423.68215306 18.06310472 423.68421364 16.43406105 C423.6875245 14.21476247 423.70296944 11.99587281 423.7215271 9.7766571 C423.72705786 8.53315837 423.73258862 7.28965963 423.73828697 6.00847912 C424 3 424 3 426 0 C427.92604733 -0.37374616 427.92604733 -0.37374616 430.33226013 -0.3719368 C431.24765847 -0.37852664 432.16305681 -0.38511649 433.1061945 -0.39190602 C434.11843303 -0.38384962 435.13067156 -0.37579321 436.17358398 -0.36749268 C437.24377242 -0.37076152 438.31396086 -0.37403036 439.41657925 -0.37739825 C443.02655868 -0.38471992 446.63613868 -0.37048252 450.24609375 -0.35644531 C452.82439239 -0.3572356 455.40269091 -0.35933107 457.98098755 -0.36264038 C464.27135513 -0.36828346 470.56160117 -0.35794065 476.85194802 -0.34235242 C484.17140049 -0.32484561 491.49082913 -0.32339385 498.81029928 -0.32273683 C511.86672325 -0.32104744 524.92309171 -0.30521631 537.97949219 -0.28125 C550.65983541 -0.25799074 563.34014343 -0.24382545 576.02050781 -0.24023438 C576.8014444 -0.24001161 577.58238099 -0.23978884 578.38698232 -0.23955932 C579.96010544 -0.23911673 581.53322856 -0.23867471 583.10635167 -0.23823325 C583.88229246 -0.23801369 584.65823324 -0.23779412 585.45768738 -0.2375679 C586.23162108 -0.23735192 587.00555478 -0.23713593 587.80294102 -0.2369134 C599.87140874 -0.23321502 611.93987074 -0.2218551 624.00833219 -0.2094375 C628.38823851 -0.20499777 632.76814429 -0.20156134 637.14805198 -0.19881538 C644.74311481 -0.19397491 652.33814523 -0.18387994 659.93319321 -0.16798782 C662.46084216 -0.16345279 664.98849481 -0.16062333 667.51614761 -0.15958023 C670.95293155 -0.1578432 674.3896462 -0.14998326 677.82641602 -0.14044189 C678.83865455 -0.14130838 679.85089308 -0.14217486 680.8938055 -0.1430676 C681.80920384 -0.13922645 682.72460218 -0.13538531 683.66773987 -0.13142776 C684.85881521 -0.12955802 684.85881521 -0.12955802 686.07395267 -0.1276505 C688 0 688 0 690 1 C690.09155538 59.5243966 690.16204677 118.04878894 690.20426132 176.57324265 C690.20925055 183.48258507 690.21443678 190.39192734 690.21972656 197.30126953 C690.2202496 197.9888229 690.22077263 198.67637628 690.22131152 199.3847646 C690.23834924 221.66024315 690.26838874 243.93568104 690.30518888 266.21113497 C690.34401596 289.75633947 690.3679894 313.30150784 690.37635398 336.84674573 C690.38184242 350.94854825 690.39917737 365.05023404 690.43166587 379.15200064 C690.45280957 388.82209914 690.45920034 398.49213729 690.45400551 408.16225722 C690.45144355 413.74140803 690.45537117 419.32035484 690.4768219 424.89946938 C690.49633136 430.01107363 690.49724134 435.12233729 690.48359558 440.23395744 C690.48190982 442.07938768 690.48694655 443.92483944 690.49953273 445.77022752 C690.56475183 455.92638639 690.10652277 464.51466795 686 474 C685.64250239 474.88082363 685.28500477 475.76164726 684.9166739 476.66916251 C679.25282802 490.1514503 666.72514483 500.34705736 653.58984375 505.96875 C643.63467599 509.9327987 633.37168726 510.15331391 622.77364826 510.12863445 C621.80168814 510.13038749 620.82972803 510.13214053 619.82831457 510.13394669 C616.58802791 510.13857969 613.34778665 510.13614818 610.10749817 510.13371277 C607.75414627 510.1355821 605.40079467 510.13788329 603.04744357 510.14057809 C597.268717 510.14604768 591.49000286 510.14688003 585.71127412 510.14571724 C578.78520012 510.14457791 571.85913297 510.14922846 564.93306095 510.1539966 C550.57403568 510.16365599 536.21501399 510.16648032 521.85598586 510.16705366 C510.76513688 510.16751361 499.6742893 510.16957408 488.58344078 510.17275429 C485.38827203 510.17365186 482.19310327 510.17454168 478.99793452 510.17542917 C478.20355392 510.17565021 477.40917332 510.17587126 476.59072058 510.17609901 C454.25317518 510.18225124 431.91563027 510.18619977 409.57808399 510.18575573 C408.73630045 510.18574015 407.89451692 510.18572457 407.02722479 510.18570852 C402.76094164 510.18562542 398.4946585 510.18552638 394.22837535 510.18542381 C393.3811117 510.18540387 392.53384805 510.18538392 391.66090974 510.18536337 C389.94753691 510.18532294 388.23416409 510.18528114 386.52079127 510.18523798 C359.86728964 510.18462532 333.21380073 510.19213103 306.56030273 510.20581055 C276.59882031 510.22118159 246.63734625 510.22977616 216.67585963 510.22884732 C213.4791191 510.2287727 210.28237857 510.22872399 207.08563805 510.22869301 C206.29854939 510.22868135 205.51146074 510.2286697 204.70052092 510.22865769 C192.05204117 510.22862696 179.4035725 510.23500397 166.75509604 510.24362527 C154.03620109 510.25211509 141.3173223 510.2530813 128.59842608 510.24651595 C121.71247294 510.24315284 114.82655627 510.24292527 107.94060707 510.2518692 C101.63085892 510.2597408 95.32118248 510.25829594 89.01143607 510.24958507 C86.73491351 510.24805155 84.45838559 510.24986061 82.18186937 510.25544515 C38.99641363 510.354325 38.99641363 510.354325 22 497 C22 496.34 22 495.68 22 495 C21.42765625 494.75507812 20.8553125 494.51015625 20.265625 494.2578125 C9.6523892 488.36563676 3.5288207 474.60349121 -0.16015625 463.51171875 C-1.7128806 457.01916437 -2.1482208 450.66800417 -2.12863445 444.0117979 C-2.13038749 443.24538616 -2.13214053 442.47897441 -2.13394669 441.68933806 C-2.13858546 439.13033199 -2.1361467 436.57138326 -2.13371277 434.01237488 C-2.13558178 432.15557268 -2.13788285 430.29877088 -2.14057809 428.44196969 C-2.14669078 423.34652519 -2.14656313 418.25109711 -2.14538372 413.15564978 C-2.14517959 407.65806489 -2.15069945 402.16048527 -2.15544128 396.66290283 C-2.16374426 385.89726364 -2.16649592 375.13162993 -2.16705366 364.3659878 C-2.16752876 355.62001659 -2.16958318 346.87404719 -2.17275429 338.12807655 C-2.18012582 317.37584919 -2.18627927 296.62362303 -2.18575573 275.87139416 C-2.18574015 275.20809368 -2.18572457 274.54479321 -2.18570852 273.86139272 C-2.18562541 270.4995326 -2.18552637 267.13767247 -2.18542381 263.77581235 C-2.18540387 263.10813475 -2.18538392 262.44045715 -2.18536337 261.7525469 C-2.18532294 260.40234385 -2.18528114 259.05214079 -2.18523798 257.70193774 C-2.18462464 236.6747387 -2.19214365 215.64755576 -2.20581055 194.62036133 C-2.22115801 170.99780677 -2.22976499 147.37526026 -2.22884732 123.75269967 C-2.22851475 111.24367149 -2.23128858 98.73466147 -2.24202538 86.22563744 C-2.25110269 75.58180431 -2.25332835 64.9379976 -2.24651595 54.2941623 C-2.24323737 48.85992649 -2.2432421 43.42574146 -2.2518692 37.99151039 C-2.25967584 33.02325584 -2.25836322 28.05509282 -2.24958507 23.08684067 C-2.24803716 21.28353862 -2.24991418 19.48022993 -2.25544515 17.6769357 C-2.26243547 15.23750957 -2.25726715 12.79841083 -2.24888897 10.35899639 C-2.25385715 9.64881311 -2.25882533 8.93862983 -2.26394406 8.20692584 C-2.23729453 4.57032714 -2.07880305 3.11820457 0 0 Z M85 210 C85 210.66 85 211.32 85 212 C84.13375 212.3403125 84.13375 212.3403125 83.25 212.6875 C75.72105755 217.07938309 71.62566282 227.04884027 69 235 C68.67 235.99 68.34 236.98 68 238 C67.88566 239.47926337 67.82379951 240.96289914 67.79467773 242.44628906 C67.77475769 243.36071777 67.75483765 244.27514648 67.73431396 245.21728516 C67.71757629 246.2232373 67.70083862 247.22918945 67.68359375 248.265625 C67.66258606 249.33441895 67.64157837 250.40321289 67.61993408 251.50439453 C67.55249166 255.08618047 67.49385278 258.66802302 67.4375 262.25 C67.41765045 263.4819812 67.3978009 264.7139624 67.37734985 265.98327637 C67.23766916 274.90028633 67.12443991 283.81744409 67.02529907 292.73498535 C66.99947544 295.04696351 66.97276022 297.35893043 66.94604492 299.67089844 C66.83707631 309.29040496 66.75952833 318.90964831 66.71389771 328.52966309 C66.69841604 331.66074444 66.67365987 334.79153887 66.64083862 337.92248535 C66.60240582 341.6502607 66.5843712 345.37762415 66.58098602 349.10559082 C66.57447656 351.12321584 66.54829407 353.14074817 66.52130127 355.15820312 C66.55392103 369.18424201 70.289712 379.98493378 79.25 390.6875 C92.68211408 401.98268684 109.10736221 405.14034438 126.22045898 405.16113281 C127.707453 405.16858017 127.707453 405.16858017 129.2244873 405.17617798 C132.48169667 405.19070228 135.73885741 405.19758392 138.99609375 405.203125 C140.67276973 405.20736607 140.67276973 405.20736607 142.38331795 405.21169281 C148.29404052 405.22664311 154.20473892 405.23589988 160.11547852 405.24023438 C166.20598923 405.2457248 172.29627704 405.26977698 178.3867178 405.29820633 C183.08544049 405.31686446 187.78410969 405.32203992 192.48286629 405.32357025 C194.72784715 405.32658815 196.97282726 405.33458738 199.21777153 405.34775543 C202.3620679 405.36488849 205.50582185 405.36291827 208.65014648 405.35644531 C210.02744682 405.37026749 210.02744682 405.37026749 211.43257141 405.3843689 C219.97316714 405.32953823 227.23604403 403.5257829 233.5625 397.609375 C239.43943528 391.02976267 239.15536905 383.16986474 239.20532227 374.88549805 C239.21522186 373.87039658 239.22512146 372.8552951 239.23532104 371.80943298 C239.26686282 368.46021849 239.29166458 365.11098981 239.31640625 361.76171875 C239.33698209 359.43715551 239.35797873 357.11259596 239.37937927 354.78804016 C239.43453479 348.6741332 239.48397285 342.56019284 239.53222656 336.44622803 C239.58248918 330.20565829 239.6381504 323.96513697 239.69335938 317.72460938 C239.80086122 305.48311429 239.90232391 293.24157715 240 281 C230.42074639 280.90733212 220.841647 280.83625155 211.262043 280.79275131 C206.81385723 280.77187362 202.36597806 280.74355298 197.91796875 280.69824219 C193.62560766 280.65479043 189.33354152 280.63086426 185.04097748 280.62049103 C183.40307725 280.6130984 181.76519323 280.59866225 180.12741852 280.57707977 C177.83361391 280.54805353 175.54102894 280.54404349 173.24707031 280.54589844 C171.94135071 280.53701599 170.6356311 280.52813354 169.29034424 280.51898193 C165.93489033 280.73450611 165.93489033 280.73450611 163.58514404 282.86798096 C161.58065576 285.56401808 161.40698599 287.21782621 161.25 290.5625 C161.16878906 292.25826172 161.16878906 292.25826172 161.0859375 293.98828125 C161.05234657 295.32540575 161.02417418 296.66267211 161 298 C160.98485352 298.80743652 160.96970703 299.61487305 160.95410156 300.44677734 C160.9139858 303.04794238 160.88966833 305.64857086 160.875 308.25 C160.87016602 309.0963501 160.86533203 309.9427002 160.86035156 310.81469727 C160.48416169 314.72017839 160.48416169 314.72017839 162 318 C164.44583986 318.15978803 166.86753547 318.25937145 169.31640625 318.31640625 C169.96411987 318.33505737 170.6118335 318.3537085 171.2791748 318.3729248 C173.70680652 318.44140265 176.13467048 318.50143617 178.5625 318.5625 C186.6990625 318.7790625 186.6990625 318.7790625 195 319 C195 334.84 195 350.68 195 367 C177.94038643 366.91086931 177.94038643 366.91086931 170.66796875 366.83984375 C165.70588817 366.79149305 160.74403185 366.74745473 155.78173828 366.72900391 C151.78089877 366.71385815 147.78064591 366.67945067 143.78006744 366.63169098 C142.2539098 366.6168555 140.72766842 366.60895774 139.2014389 366.60811615 C137.06301864 366.60575105 134.92622574 366.57871322 132.78808594 366.54589844 C131.5711908 366.53701599 130.35429565 366.52813354 129.1005249 366.51898193 C125.41818306 365.90261246 124.27058368 364.89793171 122 362 C120.33692944 358.67385887 120.86197413 354.9469446 120.87060547 351.2902832 C120.86885315 350.38749634 120.86710083 349.48470947 120.86529541 348.55456543 C120.86087585 345.55328476 120.86381844 342.55206258 120.8671875 339.55078125 C120.86651373 337.45965056 120.86554309 335.36851995 120.86428833 333.27738953 C120.8628106 328.87982442 120.86496551 324.48227956 120.86962891 320.0847168 C120.8752806 314.48570515 120.87207691 308.88674193 120.86605644 303.28773212 C120.86241365 298.95934191 120.86360714 294.63096283 120.86618423 290.30257225 C120.86684565 288.24119244 120.86605293 286.17981158 120.86370468 284.118433 C120.83376271 250.3951356 120.83376271 250.3951356 126 242 C126.33 241.01 126.66 240.02 127 239 C128.6875 237.9375 128.6875 237.9375 131 237 C131.82863556 236.6572403 132.65727112 236.31448059 133.51101685 235.96133423 C138.10710795 234.69495388 142.39003006 234.69204144 147.13623047 234.68115234 C148.64447136 234.66608391 148.64447136 234.66608391 150.18318176 234.65071106 C153.49451139 234.619911 156.80576028 234.60285257 160.1171875 234.5859375 C162.41790459 234.56722332 164.71861484 234.54764972 167.01931763 234.5272522 C173.06579552 234.47595155 179.11229565 234.43631461 185.15887451 234.39910889 C191.33253473 234.3590564 197.50610257 234.3079697 203.6796875 234.2578125 C215.78639342 234.16107761 227.89315152 234.0766649 240 234 C240.11679952 229.81273706 240.18745327 225.62589699 240.25 221.4375 C240.30027344 219.66536133 240.30027344 219.66536133 240.3515625 217.85742188 C240.42797856 211.03728891 240.44923394 206.34625691 236 201 C230.05540103 196.69367489 225.311981 196.43347927 218.09863281 196.51416016 C216.48500351 196.50846512 216.48500351 196.50846512 214.83877563 196.50265503 C211.2932592 196.49526452 207.74856829 196.51661773 204.203125 196.5390625 C201.72841488 196.54144863 199.25370292 196.54235189 196.7789917 196.5418396 C191.59408206 196.54496543 186.40944934 196.5615103 181.22460938 196.58837891 C174.59957009 196.62228683 167.97483589 196.6300092 161.34972 196.62848854 C156.23827232 196.62903429 151.12689047 196.6400355 146.01546478 196.65449142 C143.5739873 196.66082867 141.1325024 196.66479107 138.69101715 196.66627884 C135.26686606 196.67064866 131.84302825 196.68823038 128.41894531 196.70947266 C127.42220795 196.70856628 126.42547058 196.70765991 125.39852905 196.70672607 C110.91859624 196.83709826 96.24052082 200.32066263 85 210 Z M261 197 C260.81978486 207.29157156 260.64982468 217.58298008 260.5 227.875 C260.48812275 228.6901432 260.4762455 229.50528641 260.46400833 230.34513092 C259.91612202 268.52087643 259.91507592 306.696296 259.9375 344.875 C259.93792423 345.61849292 259.93834846 346.36198584 259.93878555 347.12800884 C259.94997721 366.41868474 259.97026847 385.70934319 260 405 C265.40766124 405.09940554 270.81478228 405.17172051 276.22314453 405.21972656 C278.06015293 405.23975373 279.89709829 405.26698382 281.73388672 405.30175781 C284.38525002 405.35067065 287.03576541 405.37305763 289.6875 405.390625 C290.49928711 405.41127014 291.31107422 405.43191528 292.14746094 405.45318604 C298.10399822 405.45549262 301.84298074 403.98075713 307 401 C307 400.34 307 399.68 307 399 C307.66 399 308.32 399 309 399 C312.69084669 393.68518077 313.12450425 389.52115481 313.18945312 383.13598633 C313.19774643 382.45425858 313.20603973 381.77253082 313.21458435 381.07014465 C313.23193849 379.59476307 313.24711782 378.11935465 313.26036072 376.64393044 C313.28143171 374.31192038 313.30844736 371.9800463 313.33703613 369.64811707 C313.40677602 363.86043076 313.46638535 358.07264839 313.52606201 352.28485107 C313.57691327 347.38712817 313.63169077 342.48948098 313.69187927 337.59186363 C313.71852435 335.28903296 313.73929036 332.98619542 313.7598877 330.68330383 C313.7764818 329.28080909 313.79335285 327.87831759 313.81054688 326.47583008 C313.82933899 324.6319445 313.82933899 324.6319445 313.84851074 322.75080872 C314 320 314 320 315 319 C316.74382535 318.90112208 318.49165543 318.87200968 320.23828125 318.87060547 C321.35614014 318.86745331 322.47399902 318.86430115 323.62573242 318.86105347 C325.45068237 318.86408981 325.45068237 318.86408981 327.3125 318.8671875 C328.55169189 318.86623077 329.79088379 318.86527405 331.06762695 318.86428833 C333.69388281 318.86360626 336.32004633 318.86496462 338.94628906 318.86962891 C342.31928714 318.87532619 345.69220565 318.87204698 349.06520081 318.86605644 C352.27263677 318.8615823 355.480063 318.86471118 358.6875 318.8671875 C359.9041333 318.86516327 361.1207666 318.86313904 362.37426758 318.86105347 C364.05105591 318.86578171 364.05105591 318.86578171 365.76171875 318.87060547 C366.75131592 318.87140106 367.74091309 318.87219666 368.76049805 318.87301636 C371 319 371 319 372 320 C372.08378047 322.18248195 372.09627654 324.36771645 372.08178711 326.55175781 C372.07872055 327.23637589 372.07565399 327.92099396 372.07249451 328.62635803 C372.0653228 330.11818852 372.05592426 331.61000953 372.04459953 333.10181427 C372.02726379 335.46402104 372.01692672 337.82616062 372.00868225 340.18841553 C371.98418569 346.90676242 371.94874958 353.62501939 371.90405273 360.34326172 C371.87723175 364.44871164 371.86021165 368.55410859 371.84918404 372.65962982 C371.8429817 374.22410787 371.83298568 375.78857569 371.81910515 377.35300446 C371.79983455 379.54562532 371.79298495 381.73796975 371.78881836 383.93066406 C371.78136093 385.17785217 371.7739035 386.42504028 371.76622009 387.71002197 C372.09567119 392.34637795 373.44332464 395.16498696 376 399 C376.66 399 377.32 399 378 399 C378 399.66 378 400.32 378 401 C384.00124484 404.45489992 388.22188471 405.57022778 395.09375 405.390625 C395.92588013 405.38496521 396.75801025 405.37930542 397.61535645 405.37347412 C400.2441841 405.35128184 402.87159217 405.30112133 405.5 405.25 C407.29425099 405.22991268 409.08852359 405.21166584 410.8828125 405.1953125 C415.25574602 405.15147383 419.62763328 405.08256939 424 405 C424.6915428 385.71039969 425.25960867 366.4252787 425.5625 347.125 C425.59426834 345.16412445 425.59426834 345.16412445 425.62667847 343.16363525 C426.39643674 294.44977206 426.08609362 245.71805698 426 197 C418.61271898 196.97473308 411.22544902 196.9571684 403.83813477 196.94506836 C401.32283105 196.94002637 398.80753028 196.93319297 396.29223633 196.92456055 C392.68570225 196.91248906 389.07920677 196.90677051 385.47265625 196.90234375 C384.34038101 196.89718246 383.20810577 196.89202118 382.04151917 196.88670349 C381.00051559 196.88662796 379.95951202 196.88655243 378.88696289 196.88647461 C377.96540909 196.884254 377.04385529 196.88203339 376.09437561 196.87974548 C374.01191638 196.7662802 374.01191638 196.7662802 373 198 C372.87497358 200.55499309 372.81395823 203.08430642 372.79467773 205.64086914 C372.78477814 206.44080795 372.77487854 207.24074677 372.76467896 208.06492615 C372.73297082 210.72163892 372.70826992 213.3783696 372.68359375 216.03515625 C372.66303225 217.87219215 372.642036 219.70922324 372.62062073 221.54624939 C372.56531696 226.39104318 372.51594445 231.23588025 372.46777344 236.08074951 C372.40880717 241.8885702 372.3425337 247.69631146 372.27747345 253.50406647 C372.1793595 262.33599598 372.09057498 271.16797545 372 280 C353.19 280 334.38 280 315 280 C314.67 252.61 314.34 225.22 314 197 C296.51 197 279.02 197 261 197 Z M446 202 C445.87980817 203.47228183 445.8280485 204.95020762 445.80360413 206.42718506 C445.78545465 207.38854118 445.76730518 208.34989731 445.74860573 209.34038544 C445.73367765 210.40851723 445.71874958 211.47664902 445.70336914 212.57714844 C445.68410055 213.70139473 445.66483196 214.82564102 445.64497948 215.98395538 C445.58203204 219.77569557 445.52702417 223.56750265 445.47265625 227.359375 C445.44154856 229.36947302 445.41043895 231.37957101 445.37915689 233.38966632 C444.88239937 265.59485161 444.68112529 297.80310939 444.48259032 330.01124048 C444.43185257 338.22276229 444.37747144 346.43425904 444.32291877 354.64575624 C444.2114851 371.43048084 444.10420217 388.21522891 444 405 C447.98822838 405.16407278 451.97652865 405.32633123 455.96484375 405.48828125 C457.08548218 405.53440552 458.20612061 405.58052979 459.36071777 405.62805176 C477.77037497 407.49628156 477.77037497 407.49628156 494.66398621 402.13618469 C498.1548521 397.44956845 497.74744068 393.2156721 497.7512207 387.50854492 C497.77145798 386.34713989 497.79169525 385.18573486 497.81254578 383.98913574 C497.87359828 380.15284495 497.89982613 376.31714428 497.92578125 372.48046875 C497.9613332 369.81954929 497.99881367 367.15872722 498.03886414 364.49787903 C498.1292474 358.21184047 498.1945742 351.92580223 498.25086039 345.63937598 C498.31617927 338.48072532 498.40949104 331.32252473 498.50513327 324.16422498 C498.70119619 309.44312418 498.86217511 294.72176401 499 280 C501.69163906 282.55467232 502.98502837 284.80330444 504.453125 288.234375 C505.13568359 289.81025391 505.13568359 289.81025391 505.83203125 291.41796875 C506.29996094 292.51753906 506.76789063 293.61710937 507.25 294.75 C510.76854899 302.93989893 514.39863112 311.06236469 518.18798828 319.12988281 C521.28479276 325.72779507 524.29615895 332.36502395 527.3125 339 C527.63637695 339.71178406 527.96025391 340.42356812 528.29394531 341.15692139 C532.8610198 351.20005937 537.33271798 361.27888888 541.70092773 371.41040039 C544.98569728 379.01492415 548.43792438 386.52155629 552 394 C552.37640625 394.85207031 552.7528125 395.70414063 553.140625 396.58203125 C555.13729908 400.97946822 556.53842186 403.10528014 561 405 C564.81166597 405.40904373 568.59618131 405.34849637 572.42578125 405.29296875 C573.52850876 405.28872391 574.63123627 405.28447906 575.76737976 405.28010559 C579.28267023 405.26333905 582.79738336 405.22568951 586.3125 405.1875 C588.69855942 405.17245059 591.08462784 405.15876264 593.47070312 405.14648438 C599.3140106 405.11599755 605.15693237 405.05972094 611 405 C611.76967924 379.5103733 612.21186966 354.0360055 612.30859375 328.53515625 C612.31353973 327.2532727 612.31353973 327.2532727 612.31858563 325.94549251 C612.34916153 317.84949823 612.37574245 309.75349831 612.39300442 301.65746403 C612.41510498 291.43479295 612.45777898 281.21263205 612.52644199 270.99016482 C612.57363825 263.7129195 612.59792627 256.43581308 612.6052013 249.15841955 C612.61013578 244.84201868 612.62502412 240.52620915 612.6649456 236.2099781 C612.70178062 232.17999925 612.71023294 228.15095202 612.69693947 224.12083626 C612.69699335 222.64821636 612.70726137 221.17555463 612.7286911 219.70309067 C613.06377443 210.55149788 613.06377443 210.55149788 609.10017395 202.65899658 C603.8505116 197.6597194 598.71149332 197.71080235 591.796875 197.76953125 C590.47928192 197.77021858 590.47928192 197.77021858 589.1350708 197.7709198 C587.28599693 197.77393202 585.43692536 197.78178739 583.58789062 197.79418945 C580.74600329 197.81252579 577.90444051 197.81469846 575.0625 197.81445312 C573.26562216 197.81936563 571.46874654 197.82519278 569.671875 197.83203125 C568.81777039 197.83314407 567.96366577 197.8342569 567.0836792 197.83540344 C563.23097691 197.48914918 563.23097691 197.48914918 560 199 C559.88003713 201.6303986 559.82452722 204.23569533 559.81054688 206.86743164 C559.80225357 207.69399765 559.79396027 208.52056366 559.78541565 209.37217712 C559.76795081 211.17985636 559.75280191 212.98755905 559.73963928 214.79527473 C559.71853221 217.69002552 559.69149057 220.58466829 559.66296387 223.47935486 C559.61322449 228.62754274 559.56879889 233.77576092 559.52606201 238.92401123 C559.45049888 248.02361761 559.36978077 257.12316654 559.28125 266.22265625 C559.26717102 267.69154737 559.26717102 267.69154737 559.25280762 269.19011307 C559.08176814 286.46999814 558.66045181 303.73199701 558 321 C555.13348752 318.29544822 553.80869327 315.76517583 552.21484375 312.13671875 C551.68971191 310.95174805 551.16458008 309.76677734 550.62353516 308.54589844 C550.06150914 307.25977187 549.49949778 305.9736389 548.9375 304.6875 C548.35024458 303.35804567 547.76218269 302.0289473 547.17333984 300.70019531 C545.99158191 298.0327884 544.81247966 295.36423417 543.63525391 292.69482422 C541.5011129 287.86347977 539.31837751 283.05469618 537.125 278.25 C536.32941569 276.50260936 535.53384325 274.7552133 534.73828125 273.0078125 C533.53972071 270.37780223 532.34095557 267.74788533 531.14202881 265.11804199 C529.19349478 260.8436795 527.2461774 256.56876543 525.29998779 252.29333496 C524.65579806 250.8788171 524.01116547 249.46450082 523.36602783 248.05041504 C519.65364 239.91315843 515.98555069 231.76088299 512.45185852 223.5440979 C510.01321132 217.91128997 507.2837176 212.44723953 504.48046875 206.98828125 C503.17854083 204.36037924 502.04189775 201.73942872 501 199 C488.44346392 198.36190599 475.8854228 197.87640774 463.3125 197.75 C462.25683838 197.72873047 461.20117676 197.70746094 460.11352539 197.68554688 C454.38517237 197.65944322 450.26789471 197.73210529 446 202 Z " fill="#FEFEFE" transform="translate(226,513)"/>
<path d="M0 0 C19.86403235 -0.09385289 39.72801908 -0.16417836 59.59222794 -0.20724869 C68.81758327 -0.22778734 78.04280006 -0.25573944 87.26806641 -0.30175781 C95.318086 -0.34189422 103.36800516 -0.36749582 111.41812205 -0.37635398 C115.67221832 -0.38152386 119.92602749 -0.3934883 124.18003082 -0.42292023 C159.30105915 -0.65634427 189.01881953 3.50471064 215.3125 29 C218 31.70702179 218 31.70702179 218 34 C218.66 34 219.32 34 220 34 C221.33984375 35.328125 221.33984375 35.328125 222.9375 37.25 C226.04568202 40.90973833 229.24244075 44.47333562 232.5 48 C236.1007959 51.9091932 239.64419016 55.85868095 243.125 59.875 C246.01919336 63.15508581 248.99218892 66.36268057 251.95532227 69.58032227 C254.48740116 72.33473428 256.99035268 75.10742499 259.4375 77.9375 C262.54966133 81.5296091 265.76916753 85.01507937 269 88.5 C276.16534043 96.24547133 276.16534043 96.24547133 279.25 99.6875 C279.79140625 100.28949219 280.3328125 100.89148438 280.890625 101.51171875 C282 103 282 103 282 105 C282.66 105 283.32 105 284 105 C285.41015625 106.3984375 285.41015625 106.3984375 287.0625 108.375 C289.83528532 111.64457602 292.66601217 114.83930551 295.5625 118 C298.84717132 121.63101421 301.84946463 125.3495722 304.71484375 129.31640625 C306.08230375 131.19288899 306.08230375 131.19288899 308.375 133.3125 C310 135 310 135 310 138 C222.88 138 135.76 138 46 138 C43.31258367 131.95331326 40.85629625 126.06708505 38.71484375 119.83984375 C38.2686972 118.55752365 38.2686972 118.55752365 37.8135376 117.2492981 C36.85112477 114.47997816 35.89426137 111.70877692 34.9375 108.9375 C34.26569141 107.00111293 33.59356892 105.06483474 32.92114258 103.12866211 C28.7596419 91.13544706 24.63287488 79.13028736 20.52255249 67.1194458 C17.34027334 57.82300902 14.07259348 48.55973319 10.75 39.3125 C9.16225078 34.87656525 7.57908663 30.43902555 6 26 C5.62762207 24.95521484 5.25524414 23.91042969 4.87158203 22.83398438 C3.83796875 19.91478173 2.82213132 16.99006988 1.8125 14.0625 C1.50860352 13.21018799 1.20470703 12.35787598 0.89160156 11.47973633 C0.62444336 10.6936499 0.35728516 9.90756348 0.08203125 9.09765625 C-0.15281982 8.42226807 -0.3876709 7.74687988 -0.62963867 7.05102539 C-1.0926077 4.48714744 -0.55691217 2.52489052 0 0 Z " fill="#FEFEFE" transform="translate(605,369)"/>
<path d="M0 0 C1.36062111 0.00028241 2.72124238 0.00012309 4.0818634 -0.0004425 C7.75903105 -0.00072839 11.4361658 0.0051346 15.11332583 0.01213145 C18.96235406 0.01839973 22.81138311 0.01897153 26.66041565 0.02015686 C33.94171264 0.02325995 41.22299455 0.03145953 48.50428492 0.04150635 C56.79691133 0.05269927 65.08953847 0.05818594 73.38217056 0.06320179 C90.43390692 0.07364302 107.48562862 0.09122261 124.53735352 0.11352539 C125.78842257 4.26126911 124.98446443 6.50916586 123.52563477 10.61352539 C123.05373574 11.96506814 122.58189639 13.31663172 122.11010742 14.66821289 C121.85440979 15.38847656 121.59871216 16.10874023 121.33526611 16.85083008 C120.23380986 19.9743049 119.17345111 23.11121382 118.11134338 26.24824524 C116.65775404 30.53959566 115.19041085 34.82625047 113.72485352 39.11352539 C113.4151059 40.01970612 113.10535828 40.92588684 112.78622437 41.85952759 C110.96418275 47.18866037 109.14023645 52.51713793 107.3145752 57.84503174 C106.63871546 59.8176781 105.96346868 61.79053445 105.28833008 63.76342773 C101.12500422 75.91255948 96.77384854 87.98672808 92.32833862 100.03512573 C88.7447959 109.74771289 85.26854623 119.49244487 81.91040039 129.28540039 C81.6094043 130.16196289 81.3084082 131.03852539 80.99829102 131.94165039 C80.73838379 132.70380859 80.47847656 133.4659668 80.21069336 134.2512207 C79.53735352 136.11352539 79.53735352 136.11352539 78.53735352 138.11352539 C45.57635186 138.26383408 12.61533191 138.40886315 -20.34572383 138.54677299 C-24.23365654 138.56304474 -28.12158907 138.57936037 -32.00952148 138.59570312 C-32.78356609 138.59895605 -33.55761069 138.60220898 -34.3551112 138.60556047 C-46.90206796 138.65839386 -59.44900634 138.71478566 -71.99594156 138.77248359 C-84.86225775 138.83157135 -97.72858619 138.8868558 -110.59493411 138.93858093 C-118.53948528 138.97064025 -126.48401178 139.00569578 -134.42853273 139.0445373 C-140.51182743 139.07396199 -146.59513115 139.09810503 -152.67845726 139.12023163 C-155.18031377 139.13016978 -157.68216403 139.1418502 -160.18400383 139.15535545 C-163.58583532 139.17346485 -166.9876333 139.18544642 -170.38949585 139.19581604 C-171.39142578 139.20261983 -172.3933557 139.20942362 -173.42564714 139.21643358 C-174.78491947 139.21867211 -174.78491947 139.21867211 -176.17165184 139.22095585 C-176.95767292 139.22437333 -177.74369401 139.22779081 -178.55353391 139.23131186 C-180.46264648 139.11352539 -180.46264648 139.11352539 -182.46264648 138.11352539 C-181.92253733 134.08652823 -179.96536601 132.25785161 -177.12988281 129.45605469 C-176.20834915 128.53797531 -175.28681549 127.61989594 -174.33735657 126.67399597 C-173.32320677 125.67850077 -172.30897851 124.68308551 -171.29467773 123.68774414 C-170.25600182 122.65721142 -169.21806399 121.6259343 -168.18083191 120.59394836 C-165.44570908 117.87594703 -162.70215709 115.16662313 -159.95629883 112.45947266 C-155.5774751 108.13978785 -151.21106716 103.80756683 -146.84552574 99.47446632 C-145.32734159 97.97011048 -143.80532684 96.46972035 -142.28266907 94.96989441 C-137.43919279 90.1768458 -132.84785695 85.32610156 -128.46264648 80.11352539 C-126.80371466 78.77058058 -125.13788044 77.43607851 -123.46264648 76.11352539 C-122.74077148 75.20602539 -122.01889648 74.29852539 -121.27514648 73.36352539 C-120.67702148 72.62102539 -120.07889648 71.87852539 -119.46264648 71.11352539 C-118.80264648 71.11352539 -118.14264648 71.11352539 -117.46264648 71.11352539 C-117.09139648 70.24727539 -117.09139648 70.24727539 -116.71264648 69.36352539 C-115.2796466 66.7841256 -113.67839972 65.05230947 -111.46264648 63.11352539 C-110.80264648 63.11352539 -110.14264648 63.11352539 -109.46264648 63.11352539 C-109.46264648 62.45352539 -109.46264648 61.79352539 -109.46264648 61.11352539 C-108.80264648 61.11352539 -108.14264648 61.11352539 -107.46264648 61.11352539 C-107.19838867 60.52474609 -106.93413086 59.9359668 -106.66186523 59.3293457 C-105.41895705 57.03279955 -104.11258167 55.50519373 -102.27514648 53.66040039 C-101.65897461 53.04165039 -101.04280273 52.42290039 -100.40795898 51.78540039 C-99.76600586 51.15118164 -99.12405273 50.51696289 -98.46264648 49.86352539 C-97.4997168 48.88899414 -97.4997168 48.88899414 -96.51733398 47.89477539 C-95.90116211 47.28118164 -95.28499023 46.66758789 -94.65014648 46.03540039 C-94.08682617 45.47433594 -93.52350586 44.91327148 -92.94311523 44.33520508 C-91.46264648 43.11352539 -91.46264648 43.11352539 -89.46264648 43.11352539 C-89.13264648 42.12352539 -88.80264648 41.13352539 -88.46264648 40.11352539 C-87.80264648 40.11352539 -87.14264648 40.11352539 -86.46264648 40.11352539 C-86.13264648 39.12352539 -85.80264648 38.13352539 -85.46264648 37.11352539 C-84.80264648 37.11352539 -84.14264648 37.11352539 -83.46264648 37.11352539 C-83.19452148 36.47415039 -82.92639648 35.83477539 -82.65014648 35.17602539 C-81.46264648 33.11352539 -81.46264648 33.11352539 -78.46264648 32.11352539 C-77.96764648 30.62852539 -77.96764648 30.62852539 -77.46264648 29.11352539 C-75.4387276 27.2792563 -73.43014135 25.59298321 -71.27514648 23.92602539 C-70.64874268 23.4398877 -70.02233887 22.95375 -69.37695312 22.45288086 C-48.95331465 6.93796089 -25.41859804 -0.07222917 0 0 Z " fill="#FEFEFE" transform="translate(407.462646484375,368.886474609375)"/>
<path d="M0 0 C0.70125 0.00515625 1.4025 0.0103125 2.125 0.015625 C2.82625 0.01046875 3.5275 0.0053125 4.25 0 C6.125 0.265625 6.125 0.265625 8.125 2.265625 C8.52168274 4.26391602 8.52168274 4.26391602 8.73168945 6.76953125 C8.81567993 7.71997818 8.89967041 8.67042511 8.98620605 9.64967346 C9.06939087 10.69856247 9.15257568 11.74745148 9.23828125 12.828125 C9.33298706 13.93433701 9.42769287 15.04054901 9.52526855 16.18028259 C9.83868859 19.87467821 10.1384285 23.57004208 10.4375 27.265625 C10.6521394 29.84451979 10.86723497 32.42337665 11.08276367 35.00219727 C11.78268684 43.42181431 12.45585546 51.84351422 13.125 60.265625 C13.21325043 61.37409916 13.21325043 61.37409916 13.30328369 62.50496674 C14.13955272 73.01008137 14.96187516 83.51621328 15.76961899 94.02355957 C15.93676544 96.19358832 16.10508005 98.36352402 16.27359009 100.53344727 C16.59032026 104.61954218 16.89920165 108.70619359 17.20703125 112.79296875 C17.34727722 114.59736671 17.34727722 114.59736671 17.49035645 116.43821716 C18.54622232 130.68362438 18.54622232 130.68362438 18.125 137.265625 C16.21650052 139.17412448 12.81021226 138.39622133 10.28125 138.3984375 C9.25481384 138.39987259 9.25481384 138.39987259 8.2076416 138.40133667 C6.75838123 138.4020183 5.30911782 138.40016523 3.85986328 138.39599609 C1.63437072 138.39064752 -0.59092001 138.3959416 -2.81640625 138.40234375 C-4.22135461 138.40168297 -5.62630285 138.4004018 -7.03125 138.3984375 C-8.31837891 138.39730957 -9.60550781 138.39618164 -10.93164062 138.39501953 C-13.875 138.265625 -13.875 138.265625 -14.875 137.265625 C-14.83345484 134.18113646 -14.72325493 131.12952797 -14.55859375 128.05078125 C-14.48662025 126.63696922 -14.48662025 126.63696922 -14.41319275 125.19459534 C-13.91060879 115.93367825 -13.09389003 106.71003121 -12.20455933 97.47943115 C-11.74202099 92.6709564 -11.29627056 87.86093332 -10.8515625 83.05078125 C-10.76432419 82.108396 -10.67708588 81.16601074 -10.58720398 80.19506836 C-9.89846258 72.68245789 -9.31720022 65.16804417 -8.8125 57.640625 C-8.10352058 47.08675422 -7.24304455 36.55185875 -6.3125 26.015625 C-6.24819794 25.28220886 -6.18389587 24.54879272 -6.11764526 23.79315186 C-5.72103773 19.28222651 -5.30564729 14.7734564 -4.875 10.265625 C-4.79523926 9.37939453 -4.71547852 8.49316406 -4.63330078 7.58007812 C-3.91209226 0.55421307 -3.91209226 0.55421307 0 0 Z " fill="#FEFEFE" transform="translate(567.875,368.734375)"/>
<path d="M0 0 C0.33 0 0.66 0 1 0 C1 41.58 1 83.16 1 126 C-16.84863095 102.2018254 -7.9572707 51.99342878 -4.11987305 24.73461914 C-3.8935923 23.15624358 -3.6661453 21.57803476 -3.4375 20 C-3.32572418 19.22848602 -3.21394836 18.45697205 -3.0987854 17.66207886 C-1.10204516 3.99514839 -1.10204516 3.99514839 0 0 Z " fill="#FEFEFE" transform="translate(1023,519)"/>
<path d="M0 0 C0.33 0 0.66 0 1 0 C1 26.73 1 53.46 1 81 C-2.06139427 77.93860573 -2.58669569 76.87988805 -3.625 72.875 C-3.98464844 71.54082031 -3.98464844 71.54082031 -4.3515625 70.1796875 C-8.99985225 47.38626666 -5.7545028 22.30554894 0 0 Z " fill="#FEFEFE" transform="translate(1023,907)"/>
<path d="" fill="#FFFFFF" transform="translate(0,0)"/>
<path d="" fill="#FFFFFF" transform="translate(0,0)"/>
<path d="" fill="#FFFFFF" transform="translate(0,0)"/>
<path d="" fill="#FFFFFF" transform="translate(0,0)"/>
</svg>
